<svg width="363" height="98" viewBox="0 0 363 98" fill="none" xmlns="http://www.w3.org/2000/svg">
<g opacity="0.8" clip-path="url(#clip0_1_15211)">
<mask id="mask0_1_15211" style="mask-type:alpha" maskUnits="userSpaceOnUse" x="38" y="0" width="286" height="285">
<rect width="284.25" height="284.25" transform="translate(38.875)" fill="url(#paint0_radial_1_15211)"/>
</mask>
<g mask="url(#mask0_1_15211)">
<g clip-path="url(#clip1_1_15211)">
<mask id="path-3-inside-1_1_15211" fill="white">
<path d="M29.4 0H42.0333V12.6333H29.4V0Z"/>
</mask>
<path d="M42.0333 12.6333V12.8307H42.2307V12.6333H42.0333ZM41.8359 0V12.6333H42.2307V0H41.8359ZM42.0333 12.4359H29.4V12.8307H42.0333V12.4359Z" fill="#D0D5DD" mask="url(#path-3-inside-1_1_15211)"/>
<mask id="path-5-inside-2_1_15211" fill="white">
<path d="M42.0333 0H54.6667V12.6333H42.0333V0Z"/>
</mask>
<path d="M54.6667 12.6333V12.8307H54.8641V12.6333H54.6667ZM54.4693 0V12.6333H54.8641V0H54.4693ZM54.6667 12.4359H42.0333V12.8307H54.6667V12.4359Z" fill="#D0D5DD" mask="url(#path-5-inside-2_1_15211)"/>
<mask id="path-7-inside-3_1_15211" fill="white">
<path d="M54.6667 0H67.3V12.6333H54.6667V0Z"/>
</mask>
<path d="M67.3 12.6333V12.8307H67.4974V12.6333H67.3ZM67.1026 0V12.6333H67.4974V0H67.1026ZM67.3 12.4359H54.6667V12.8307H67.3V12.4359Z" fill="#D0D5DD" mask="url(#path-7-inside-3_1_15211)"/>
<mask id="path-9-inside-4_1_15211" fill="white">
<path d="M67.3 0H79.9333V12.6333H67.3V0Z"/>
</mask>
<path d="M79.9333 12.6333V12.8307H80.1307V12.6333H79.9333ZM79.7359 0V12.6333H80.1307V0H79.7359ZM79.9333 12.4359H67.3V12.8307H79.9333V12.4359Z" fill="#D0D5DD" mask="url(#path-9-inside-4_1_15211)"/>
<mask id="path-11-inside-5_1_15211" fill="white">
<path d="M79.9333 0H92.5667V12.6333H79.9333V0Z"/>
</mask>
<path d="M92.5667 12.6333V12.8307H92.7641V12.6333H92.5667ZM92.3693 0V12.6333H92.7641V0H92.3693ZM92.5667 12.4359H79.9333V12.8307H92.5667V12.4359Z" fill="#D0D5DD" mask="url(#path-11-inside-5_1_15211)"/>
<mask id="path-13-inside-6_1_15211" fill="white">
<path d="M92.5667 0H105.2V12.6333H92.5667V0Z"/>
</mask>
<path d="M105.2 12.6333V12.8307H105.397V12.6333H105.2ZM105.003 0V12.6333H105.397V0H105.003ZM105.2 12.4359H92.5667V12.8307H105.2V12.4359Z" fill="#D0D5DD" mask="url(#path-13-inside-6_1_15211)"/>
<mask id="path-15-inside-7_1_15211" fill="white">
<path d="M105.2 0H117.833V12.6333H105.2V0Z"/>
</mask>
<path d="M117.833 12.6333V12.8307H118.031V12.6333H117.833ZM117.636 0V12.6333H118.031V0H117.636ZM117.833 12.4359H105.2V12.8307H117.833V12.4359Z" fill="#D0D5DD" mask="url(#path-15-inside-7_1_15211)"/>
<mask id="path-17-inside-8_1_15211" fill="white">
<path d="M117.833 0H130.467V12.6333H117.833V0Z"/>
</mask>
<path d="M130.467 12.6333V12.8307H130.664V12.6333H130.467ZM130.269 0V12.6333H130.664V0H130.269ZM130.467 12.4359H117.833V12.8307H130.467V12.4359Z" fill="#D0D5DD" mask="url(#path-17-inside-8_1_15211)"/>
<mask id="path-19-inside-9_1_15211" fill="white">
<path d="M130.467 0H143.1V12.6333H130.467V0Z"/>
</mask>
<path d="M143.1 12.6333V12.8307H143.297V12.6333H143.1ZM142.903 0V12.6333H143.297V0H142.903ZM143.1 12.4359H130.467V12.8307H143.1V12.4359Z" fill="#D0D5DD" mask="url(#path-19-inside-9_1_15211)"/>
<mask id="path-21-inside-10_1_15211" fill="white">
<path d="M143.1 0H155.733V12.6333H143.1V0Z"/>
</mask>
<path d="M155.733 12.6333V12.8307H155.931V12.6333H155.733ZM155.536 0V12.6333H155.931V0H155.536ZM155.733 12.4359H143.1V12.8307H155.733V12.4359Z" fill="#D0D5DD" mask="url(#path-21-inside-10_1_15211)"/>
<mask id="path-23-inside-11_1_15211" fill="white">
<path d="M155.733 0H168.367V12.6333H155.733V0Z"/>
</mask>
<path d="M168.367 12.6333V12.8307H168.564V12.6333H168.367ZM168.169 0V12.6333H168.564V0H168.169ZM168.367 12.4359H155.733V12.8307H168.367V12.4359Z" fill="#D0D5DD" mask="url(#path-23-inside-11_1_15211)"/>
<mask id="path-25-inside-12_1_15211" fill="white">
<path d="M168.367 0H181V12.6333H168.367V0Z"/>
</mask>
<path d="M181 12.6333V12.8307H181.197V12.6333H181ZM180.803 0V12.6333H181.197V0H180.803ZM181 12.4359H168.367V12.8307H181V12.4359Z" fill="#D0D5DD" mask="url(#path-25-inside-12_1_15211)"/>
<mask id="path-27-inside-13_1_15211" fill="white">
<path d="M181 0H193.633V12.6333H181V0Z"/>
</mask>
<path d="M193.633 12.6333V12.8307H193.831V12.6333H193.633ZM193.436 0V12.6333H193.831V0H193.436ZM193.633 12.4359H181V12.8307H193.633V12.4359Z" fill="#D0D5DD" mask="url(#path-27-inside-13_1_15211)"/>
<mask id="path-29-inside-14_1_15211" fill="white">
<path d="M193.633 0H206.267V12.6333H193.633V0Z"/>
</mask>
<path d="M206.267 12.6333V12.8307H206.464V12.6333H206.267ZM206.069 0V12.6333H206.464V0H206.069ZM206.267 12.4359H193.633V12.8307H206.267V12.4359Z" fill="#D0D5DD" mask="url(#path-29-inside-14_1_15211)"/>
<mask id="path-31-inside-15_1_15211" fill="white">
<path d="M206.267 0H218.9V12.6333H206.267V0Z"/>
</mask>
<path d="M218.9 12.6333V12.8307H219.097V12.6333H218.9ZM218.703 0V12.6333H219.097V0H218.703ZM218.9 12.4359H206.267V12.8307H218.9V12.4359Z" fill="#D0D5DD" mask="url(#path-31-inside-15_1_15211)"/>
<mask id="path-33-inside-16_1_15211" fill="white">
<path d="M218.9 0H231.533V12.6333H218.9V0Z"/>
</mask>
<path d="M231.533 12.6333V12.8307H231.731V12.6333H231.533ZM231.336 0V12.6333H231.731V0H231.336ZM231.533 12.4359H218.9V12.8307H231.533V12.4359Z" fill="#D0D5DD" mask="url(#path-33-inside-16_1_15211)"/>
<mask id="path-35-inside-17_1_15211" fill="white">
<path d="M231.533 0H244.167V12.6333H231.533V0Z"/>
</mask>
<path d="M244.167 12.6333V12.8307H244.364V12.6333H244.167ZM243.969 0V12.6333H244.364V0H243.969ZM244.167 12.4359H231.533V12.8307H244.167V12.4359Z" fill="#D0D5DD" mask="url(#path-35-inside-17_1_15211)"/>
<mask id="path-37-inside-18_1_15211" fill="white">
<path d="M244.167 0H256.8V12.6333H244.167V0Z"/>
</mask>
<path d="M256.8 12.6333V12.8307H256.997V12.6333H256.8ZM256.603 0V12.6333H256.997V0H256.603ZM256.8 12.4359H244.167V12.8307H256.8V12.4359Z" fill="#D0D5DD" mask="url(#path-37-inside-18_1_15211)"/>
<mask id="path-39-inside-19_1_15211" fill="white">
<path d="M256.8 0H269.433V12.6333H256.8V0Z"/>
</mask>
<path d="M269.433 12.6333V12.8307H269.631V12.6333H269.433ZM269.236 0V12.6333H269.631V0H269.236ZM269.433 12.4359H256.8V12.8307H269.433V12.4359Z" fill="#D0D5DD" mask="url(#path-39-inside-19_1_15211)"/>
<mask id="path-41-inside-20_1_15211" fill="white">
<path d="M269.433 0H282.067V12.6333H269.433V0Z"/>
</mask>
<path d="M282.067 12.6333V12.8307H282.264V12.6333H282.067ZM281.869 0V12.6333H282.264V0H281.869ZM282.067 12.4359H269.433V12.8307H282.067V12.4359Z" fill="#D0D5DD" mask="url(#path-41-inside-20_1_15211)"/>
<mask id="path-43-inside-21_1_15211" fill="white">
<path d="M282.067 0H294.7V12.6333H282.067V0Z"/>
</mask>
<path d="M294.7 12.6333V12.8307H294.897V12.6333H294.7ZM294.503 0V12.6333H294.897V0H294.503ZM294.7 12.4359H282.067V12.8307H294.7V12.4359Z" fill="#D0D5DD" mask="url(#path-43-inside-21_1_15211)"/>
<mask id="path-45-inside-22_1_15211" fill="white">
<path d="M294.7 0H307.333V12.6333H294.7V0Z"/>
</mask>
<path d="M307.333 12.6333V12.8307H307.531V12.6333H307.333ZM307.136 0V12.6333H307.531V0H307.136ZM307.333 12.4359H294.7V12.8307H307.333V12.4359Z" fill="#D0D5DD" mask="url(#path-45-inside-22_1_15211)"/>
<mask id="path-47-inside-23_1_15211" fill="white">
<path d="M307.333 0H319.967V12.6333H307.333V0Z"/>
</mask>
<path d="M319.967 12.6333V12.8307H320.164V12.6333H319.967ZM319.769 0V12.6333H320.164V0H319.769ZM319.967 12.4359H307.333V12.8307H319.967V12.4359Z" fill="#D0D5DD" mask="url(#path-47-inside-23_1_15211)"/>
<mask id="path-49-inside-24_1_15211" fill="white">
<path d="M319.967 0H332.6V12.6333H319.967V0Z"/>
</mask>
<path d="M332.6 12.6333V12.8307H332.797V12.6333H332.6ZM332.403 0V12.6333H332.797V0H332.403ZM332.6 12.4359H319.967V12.8307H332.6V12.4359Z" fill="#D0D5DD" mask="url(#path-49-inside-24_1_15211)"/>
<mask id="path-51-inside-25_1_15211" fill="white">
<path d="M29.4 12.6338H42.0333V25.2671H29.4V12.6338Z"/>
</mask>
<path d="M42.0333 25.2671V25.4645H42.2307V25.2671H42.0333ZM41.8359 12.6338V25.2671H42.2307V12.6338H41.8359ZM42.0333 25.0697H29.4V25.4645H42.0333V25.0697Z" fill="#D0D5DD" mask="url(#path-51-inside-25_1_15211)"/>
<mask id="path-53-inside-26_1_15211" fill="white">
<path d="M42.0333 12.6338H54.6667V25.2671H42.0333V12.6338Z"/>
</mask>
<path d="M54.6667 25.2671V25.4645H54.8641V25.2671H54.6667ZM54.4693 12.6338V25.2671H54.8641V12.6338H54.4693ZM54.6667 25.0697H42.0333V25.4645H54.6667V25.0697Z" fill="#D0D5DD" mask="url(#path-53-inside-26_1_15211)"/>
<mask id="path-55-inside-27_1_15211" fill="white">
<path d="M54.6667 12.6338H67.3V25.2671H54.6667V12.6338Z"/>
</mask>
<path d="M54.6667 12.6338H67.3V25.2671H54.6667V12.6338Z" fill="#F2F4F7"/>
<path d="M67.3 25.2671V25.4645H67.4974V25.2671H67.3ZM67.1026 12.6338V25.2671H67.4974V12.6338H67.1026ZM67.3 25.0697H54.6667V25.4645H67.3V25.0697Z" fill="#D0D5DD" mask="url(#path-55-inside-27_1_15211)"/>
<mask id="path-57-inside-28_1_15211" fill="white">
<path d="M67.3 12.6338H79.9333V25.2671H67.3V12.6338Z"/>
</mask>
<path d="M79.9333 25.2671V25.4645H80.1307V25.2671H79.9333ZM79.7359 12.6338V25.2671H80.1307V12.6338H79.7359ZM79.9333 25.0697H67.3V25.4645H79.9333V25.0697Z" fill="#D0D5DD" mask="url(#path-57-inside-28_1_15211)"/>
<mask id="path-59-inside-29_1_15211" fill="white">
<path d="M79.9333 12.6338H92.5667V25.2671H79.9333V12.6338Z"/>
</mask>
<path d="M92.5667 25.2671V25.4645H92.7641V25.2671H92.5667ZM92.3693 12.6338V25.2671H92.7641V12.6338H92.3693ZM92.5667 25.0697H79.9333V25.4645H92.5667V25.0697Z" fill="#D0D5DD" mask="url(#path-59-inside-29_1_15211)"/>
<mask id="path-61-inside-30_1_15211" fill="white">
<path d="M92.5667 12.6338H105.2V25.2671H92.5667V12.6338Z"/>
</mask>
<path d="M105.2 25.2671V25.4645H105.397V25.2671H105.2ZM105.003 12.6338V25.2671H105.397V12.6338H105.003ZM105.2 25.0697H92.5667V25.4645H105.2V25.0697Z" fill="#D0D5DD" mask="url(#path-61-inside-30_1_15211)"/>
<mask id="path-63-inside-31_1_15211" fill="white">
<path d="M105.2 12.6338H117.833V25.2671H105.2V12.6338Z"/>
</mask>
<path d="M105.2 12.6338H117.833V25.2671H105.2V12.6338Z" fill="#F2F4F7"/>
<path d="M117.833 25.2671V25.4645H118.031V25.2671H117.833ZM117.636 12.6338V25.2671H118.031V12.6338H117.636ZM117.833 25.0697H105.2V25.4645H117.833V25.0697Z" fill="#D0D5DD" mask="url(#path-63-inside-31_1_15211)"/>
<mask id="path-65-inside-32_1_15211" fill="white">
<path d="M117.833 12.6338H130.467V25.2671H117.833V12.6338Z"/>
</mask>
<path d="M130.467 25.2671V25.4645H130.664V25.2671H130.467ZM130.269 12.6338V25.2671H130.664V12.6338H130.269ZM130.467 25.0697H117.833V25.4645H130.467V25.0697Z" fill="#D0D5DD" mask="url(#path-65-inside-32_1_15211)"/>
<mask id="path-67-inside-33_1_15211" fill="white">
<path d="M130.467 12.6338H143.1V25.2671H130.467V12.6338Z"/>
</mask>
<path d="M143.1 25.2671V25.4645H143.297V25.2671H143.1ZM142.903 12.6338V25.2671H143.297V12.6338H142.903ZM143.1 25.0697H130.467V25.4645H143.1V25.0697Z" fill="#D0D5DD" mask="url(#path-67-inside-33_1_15211)"/>
<mask id="path-69-inside-34_1_15211" fill="white">
<path d="M143.1 12.6338H155.733V25.2671H143.1V12.6338Z"/>
</mask>
<path d="M155.733 25.2671V25.4645H155.931V25.2671H155.733ZM155.536 12.6338V25.2671H155.931V12.6338H155.536ZM155.733 25.0697H143.1V25.4645H155.733V25.0697Z" fill="#D0D5DD" mask="url(#path-69-inside-34_1_15211)"/>
<mask id="path-71-inside-35_1_15211" fill="white">
<path d="M155.733 12.6338H168.367V25.2671H155.733V12.6338Z"/>
</mask>
<path d="M168.367 25.2671V25.4645H168.564V25.2671H168.367ZM168.169 12.6338V25.2671H168.564V12.6338H168.169ZM168.367 25.0697H155.733V25.4645H168.367V25.0697Z" fill="#D0D5DD" mask="url(#path-71-inside-35_1_15211)"/>
<mask id="path-73-inside-36_1_15211" fill="white">
<path d="M168.367 12.6338H181V25.2671H168.367V12.6338Z"/>
</mask>
<path d="M181 25.2671V25.4645H181.197V25.2671H181ZM180.803 12.6338V25.2671H181.197V12.6338H180.803ZM181 25.0697H168.367V25.4645H181V25.0697Z" fill="#D0D5DD" mask="url(#path-73-inside-36_1_15211)"/>
<mask id="path-75-inside-37_1_15211" fill="white">
<path d="M181 12.6338H193.633V25.2671H181V12.6338Z"/>
</mask>
<path d="M193.633 25.2671V25.4645H193.831V25.2671H193.633ZM193.436 12.6338V25.2671H193.831V12.6338H193.436ZM193.633 25.0697H181V25.4645H193.633V25.0697Z" fill="#D0D5DD" mask="url(#path-75-inside-37_1_15211)"/>
<mask id="path-77-inside-38_1_15211" fill="white">
<path d="M193.633 12.6338H206.267V25.2671H193.633V12.6338Z"/>
</mask>
<path d="M206.267 25.2671V25.4645H206.464V25.2671H206.267ZM206.069 12.6338V25.2671H206.464V12.6338H206.069ZM206.267 25.0697H193.633V25.4645H206.267V25.0697Z" fill="#D0D5DD" mask="url(#path-77-inside-38_1_15211)"/>
<mask id="path-79-inside-39_1_15211" fill="white">
<path d="M206.267 12.6338H218.9V25.2671H206.267V12.6338Z"/>
</mask>
<path d="M218.9 25.2671V25.4645H219.097V25.2671H218.9ZM218.703 12.6338V25.2671H219.097V12.6338H218.703ZM218.9 25.0697H206.267V25.4645H218.9V25.0697Z" fill="#D0D5DD" mask="url(#path-79-inside-39_1_15211)"/>
<mask id="path-81-inside-40_1_15211" fill="white">
<path d="M218.9 12.6338H231.533V25.2671H218.9V12.6338Z"/>
</mask>
<path d="M231.533 25.2671V25.4645H231.731V25.2671H231.533ZM231.336 12.6338V25.2671H231.731V12.6338H231.336ZM231.533 25.0697H218.9V25.4645H231.533V25.0697Z" fill="#D0D5DD" mask="url(#path-81-inside-40_1_15211)"/>
<mask id="path-83-inside-41_1_15211" fill="white">
<path d="M231.533 12.6338H244.167V25.2671H231.533V12.6338Z"/>
</mask>
<path d="M244.167 25.2671V25.4645H244.364V25.2671H244.167ZM243.969 12.6338V25.2671H244.364V12.6338H243.969ZM244.167 25.0697H231.533V25.4645H244.167V25.0697Z" fill="#D0D5DD" mask="url(#path-83-inside-41_1_15211)"/>
<mask id="path-85-inside-42_1_15211" fill="white">
<path d="M244.167 12.6338H256.8V25.2671H244.167V12.6338Z"/>
</mask>
<path d="M244.167 12.6338H256.8V25.2671H244.167V12.6338Z" fill="#F2F4F7"/>
<path d="M256.8 25.2671V25.4645H256.997V25.2671H256.8ZM256.603 12.6338V25.2671H256.997V12.6338H256.603ZM256.8 25.0697H244.167V25.4645H256.8V25.0697Z" fill="#D0D5DD" mask="url(#path-85-inside-42_1_15211)"/>
<mask id="path-87-inside-43_1_15211" fill="white">
<path d="M256.8 12.6338H269.433V25.2671H256.8V12.6338Z"/>
</mask>
<path d="M269.433 25.2671V25.4645H269.631V25.2671H269.433ZM269.236 12.6338V25.2671H269.631V12.6338H269.236ZM269.433 25.0697H256.8V25.4645H269.433V25.0697Z" fill="#D0D5DD" mask="url(#path-87-inside-43_1_15211)"/>
<mask id="path-89-inside-44_1_15211" fill="white">
<path d="M269.433 12.6338H282.067V25.2671H269.433V12.6338Z"/>
</mask>
<path d="M282.067 25.2671V25.4645H282.264V25.2671H282.067ZM281.869 12.6338V25.2671H282.264V12.6338H281.869ZM282.067 25.0697H269.433V25.4645H282.067V25.0697Z" fill="#D0D5DD" mask="url(#path-89-inside-44_1_15211)"/>
<mask id="path-91-inside-45_1_15211" fill="white">
<path d="M282.067 12.6338H294.7V25.2671H282.067V12.6338Z"/>
</mask>
<path d="M294.7 25.2671V25.4645H294.897V25.2671H294.7ZM294.503 12.6338V25.2671H294.897V12.6338H294.503ZM294.7 25.0697H282.067V25.4645H294.7V25.0697Z" fill="#D0D5DD" mask="url(#path-91-inside-45_1_15211)"/>
<mask id="path-93-inside-46_1_15211" fill="white">
<path d="M294.7 12.6338H307.333V25.2671H294.7V12.6338Z"/>
</mask>
<path d="M307.333 25.2671V25.4645H307.531V25.2671H307.333ZM307.136 12.6338V25.2671H307.531V12.6338H307.136ZM307.333 25.0697H294.7V25.4645H307.333V25.0697Z" fill="#D0D5DD" mask="url(#path-93-inside-46_1_15211)"/>
<mask id="path-95-inside-47_1_15211" fill="white">
<path d="M307.333 12.6338H319.967V25.2671H307.333V12.6338Z"/>
</mask>
<path d="M319.967 25.2671V25.4645H320.164V25.2671H319.967ZM319.769 12.6338V25.2671H320.164V12.6338H319.769ZM319.967 25.0697H307.333V25.4645H319.967V25.0697Z" fill="#D0D5DD" mask="url(#path-95-inside-47_1_15211)"/>
<mask id="path-97-inside-48_1_15211" fill="white">
<path d="M319.967 12.6338H332.6V25.2671H319.967V12.6338Z"/>
</mask>
<path d="M332.6 25.2671V25.4645H332.797V25.2671H332.6ZM332.403 12.6338V25.2671H332.797V12.6338H332.403ZM332.6 25.0697H319.967V25.4645H332.6V25.0697Z" fill="#D0D5DD" mask="url(#path-97-inside-48_1_15211)"/>
<mask id="path-99-inside-49_1_15211" fill="white">
<path d="M29.4 25.2666H42.0333V37.8999H29.4V25.2666Z"/>
</mask>
<path d="M42.0333 37.8999V38.0973H42.2307V37.8999H42.0333ZM41.8359 25.2666V37.8999H42.2307V25.2666H41.8359ZM42.0333 37.7025H29.4V38.0973H42.0333V37.7025Z" fill="#D0D5DD" mask="url(#path-99-inside-49_1_15211)"/>
<mask id="path-101-inside-50_1_15211" fill="white">
<path d="M42.0333 25.2666H54.6667V37.8999H42.0333V25.2666Z"/>
</mask>
<path d="M54.6667 37.8999V38.0973H54.8641V37.8999H54.6667ZM54.4693 25.2666V37.8999H54.8641V25.2666H54.4693ZM54.6667 37.7025H42.0333V38.0973H54.6667V37.7025Z" fill="#D0D5DD" mask="url(#path-101-inside-50_1_15211)"/>
<mask id="path-103-inside-51_1_15211" fill="white">
<path d="M54.6667 25.2666H67.3V37.8999H54.6667V25.2666Z"/>
</mask>
<path d="M67.3 37.8999V38.0973H67.4974V37.8999H67.3ZM67.1026 25.2666V37.8999H67.4974V25.2666H67.1026ZM67.3 37.7025H54.6667V38.0973H67.3V37.7025Z" fill="#D0D5DD" mask="url(#path-103-inside-51_1_15211)"/>
<mask id="path-105-inside-52_1_15211" fill="white">
<path d="M67.3 25.2666H79.9333V37.8999H67.3V25.2666Z"/>
</mask>
<path d="M79.9333 37.8999V38.0973H80.1307V37.8999H79.9333ZM79.7359 25.2666V37.8999H80.1307V25.2666H79.7359ZM79.9333 37.7025H67.3V38.0973H79.9333V37.7025Z" fill="#D0D5DD" mask="url(#path-105-inside-52_1_15211)"/>
<mask id="path-107-inside-53_1_15211" fill="white">
<path d="M79.9333 25.2666H92.5667V37.8999H79.9333V25.2666Z"/>
</mask>
<path d="M92.5667 37.8999V38.0973H92.7641V37.8999H92.5667ZM92.3693 25.2666V37.8999H92.7641V25.2666H92.3693ZM92.5667 37.7025H79.9333V38.0973H92.5667V37.7025Z" fill="#D0D5DD" mask="url(#path-107-inside-53_1_15211)"/>
<mask id="path-109-inside-54_1_15211" fill="white">
<path d="M92.5667 25.2666H105.2V37.8999H92.5667V25.2666Z"/>
</mask>
<path d="M105.2 37.8999V38.0973H105.397V37.8999H105.2ZM105.003 25.2666V37.8999H105.397V25.2666H105.003ZM105.2 37.7025H92.5667V38.0973H105.2V37.7025Z" fill="#D0D5DD" mask="url(#path-109-inside-54_1_15211)"/>
<mask id="path-111-inside-55_1_15211" fill="white">
<path d="M105.2 25.2666H117.833V37.8999H105.2V25.2666Z"/>
</mask>
<path d="M117.833 37.8999V38.0973H118.031V37.8999H117.833ZM117.636 25.2666V37.8999H118.031V25.2666H117.636ZM117.833 37.7025H105.2V38.0973H117.833V37.7025Z" fill="#D0D5DD" mask="url(#path-111-inside-55_1_15211)"/>
<mask id="path-113-inside-56_1_15211" fill="white">
<path d="M117.833 25.2666H130.467V37.8999H117.833V25.2666Z"/>
</mask>
<path d="M130.467 37.8999V38.0973H130.664V37.8999H130.467ZM130.269 25.2666V37.8999H130.664V25.2666H130.269ZM130.467 37.7025H117.833V38.0973H130.467V37.7025Z" fill="#D0D5DD" mask="url(#path-113-inside-56_1_15211)"/>
<mask id="path-115-inside-57_1_15211" fill="white">
<path d="M130.467 25.2666H143.1V37.8999H130.467V25.2666Z"/>
</mask>
<path d="M130.467 25.2666H143.1V37.8999H130.467V25.2666Z" fill="#F2F4F7"/>
<path d="M143.1 37.8999V38.0973H143.297V37.8999H143.1ZM142.903 25.2666V37.8999H143.297V25.2666H142.903ZM143.1 37.7025H130.467V38.0973H143.1V37.7025Z" fill="#D0D5DD" mask="url(#path-115-inside-57_1_15211)"/>
<mask id="path-117-inside-58_1_15211" fill="white">
<path d="M143.1 25.2666H155.733V37.8999H143.1V25.2666Z"/>
</mask>
<path d="M155.733 37.8999V38.0973H155.931V37.8999H155.733ZM155.536 25.2666V37.8999H155.931V25.2666H155.536ZM155.733 37.7025H143.1V38.0973H155.733V37.7025Z" fill="#D0D5DD" mask="url(#path-117-inside-58_1_15211)"/>
<mask id="path-119-inside-59_1_15211" fill="white">
<path d="M155.733 25.2666H168.367V37.8999H155.733V25.2666Z"/>
</mask>
<path d="M168.367 37.8999V38.0973H168.564V37.8999H168.367ZM168.169 25.2666V37.8999H168.564V25.2666H168.169ZM168.367 37.7025H155.733V38.0973H168.367V37.7025Z" fill="#D0D5DD" mask="url(#path-119-inside-59_1_15211)"/>
<mask id="path-121-inside-60_1_15211" fill="white">
<path d="M168.367 25.2666H181V37.8999H168.367V25.2666Z"/>
</mask>
<path d="M181 37.8999V38.0973H181.197V37.8999H181ZM180.803 25.2666V37.8999H181.197V25.2666H180.803ZM181 37.7025H168.367V38.0973H181V37.7025Z" fill="#D0D5DD" mask="url(#path-121-inside-60_1_15211)"/>
<mask id="path-123-inside-61_1_15211" fill="white">
<path d="M181 25.2666H193.633V37.8999H181V25.2666Z"/>
</mask>
<path d="M193.633 37.8999V38.0973H193.831V37.8999H193.633ZM193.436 25.2666V37.8999H193.831V25.2666H193.436ZM193.633 37.7025H181V38.0973H193.633V37.7025Z" fill="#D0D5DD" mask="url(#path-123-inside-61_1_15211)"/>
<mask id="path-125-inside-62_1_15211" fill="white">
<path d="M193.633 25.2666H206.267V37.8999H193.633V25.2666Z"/>
</mask>
<path d="M193.633 25.2666H206.267V37.8999H193.633V25.2666Z" fill="#F2F4F7"/>
<path d="M206.267 37.8999V38.0973H206.464V37.8999H206.267ZM206.069 25.2666V37.8999H206.464V25.2666H206.069ZM206.267 37.7025H193.633V38.0973H206.267V37.7025Z" fill="#D0D5DD" mask="url(#path-125-inside-62_1_15211)"/>
<mask id="path-127-inside-63_1_15211" fill="white">
<path d="M206.267 25.2666H218.9V37.8999H206.267V25.2666Z"/>
</mask>
<path d="M218.9 37.8999V38.0973H219.097V37.8999H218.9ZM218.703 25.2666V37.8999H219.097V25.2666H218.703ZM218.9 37.7025H206.267V38.0973H218.9V37.7025Z" fill="#D0D5DD" mask="url(#path-127-inside-63_1_15211)"/>
<mask id="path-129-inside-64_1_15211" fill="white">
<path d="M218.9 25.2666H231.533V37.8999H218.9V25.2666Z"/>
</mask>
<path d="M231.533 37.8999V38.0973H231.731V37.8999H231.533ZM231.336 25.2666V37.8999H231.731V25.2666H231.336ZM231.533 37.7025H218.9V38.0973H231.533V37.7025Z" fill="#D0D5DD" mask="url(#path-129-inside-64_1_15211)"/>
<mask id="path-131-inside-65_1_15211" fill="white">
<path d="M231.533 25.2666H244.167V37.8999H231.533V25.2666Z"/>
</mask>
<path d="M244.167 37.8999V38.0973H244.364V37.8999H244.167ZM243.969 25.2666V37.8999H244.364V25.2666H243.969ZM244.167 37.7025H231.533V38.0973H244.167V37.7025Z" fill="#D0D5DD" mask="url(#path-131-inside-65_1_15211)"/>
<mask id="path-133-inside-66_1_15211" fill="white">
<path d="M244.167 25.2666H256.8V37.8999H244.167V25.2666Z"/>
</mask>
<path d="M256.8 37.8999V38.0973H256.997V37.8999H256.8ZM256.603 25.2666V37.8999H256.997V25.2666H256.603ZM256.8 37.7025H244.167V38.0973H256.8V37.7025Z" fill="#D0D5DD" mask="url(#path-133-inside-66_1_15211)"/>
<mask id="path-135-inside-67_1_15211" fill="white">
<path d="M256.8 25.2666H269.433V37.8999H256.8V25.2666Z"/>
</mask>
<path d="M269.433 37.8999V38.0973H269.631V37.8999H269.433ZM269.236 25.2666V37.8999H269.631V25.2666H269.236ZM269.433 37.7025H256.8V38.0973H269.433V37.7025Z" fill="#D0D5DD" mask="url(#path-135-inside-67_1_15211)"/>
<mask id="path-137-inside-68_1_15211" fill="white">
<path d="M269.433 25.2666H282.067V37.8999H269.433V25.2666Z"/>
</mask>
<path d="M282.067 37.8999V38.0973H282.264V37.8999H282.067ZM281.869 25.2666V37.8999H282.264V25.2666H281.869ZM282.067 37.7025H269.433V38.0973H282.067V37.7025Z" fill="#D0D5DD" mask="url(#path-137-inside-68_1_15211)"/>
<mask id="path-139-inside-69_1_15211" fill="white">
<path d="M282.067 25.2666H294.7V37.8999H282.067V25.2666Z"/>
</mask>
<path d="M294.7 37.8999V38.0973H294.897V37.8999H294.7ZM294.503 25.2666V37.8999H294.897V25.2666H294.503ZM294.7 37.7025H282.067V38.0973H294.7V37.7025Z" fill="#D0D5DD" mask="url(#path-139-inside-69_1_15211)"/>
<mask id="path-141-inside-70_1_15211" fill="white">
<path d="M294.7 25.2666H307.333V37.8999H294.7V25.2666Z"/>
</mask>
<path d="M307.333 37.8999V38.0973H307.531V37.8999H307.333ZM307.136 25.2666V37.8999H307.531V25.2666H307.136ZM307.333 37.7025H294.7V38.0973H307.333V37.7025Z" fill="#D0D5DD" mask="url(#path-141-inside-70_1_15211)"/>
<mask id="path-143-inside-71_1_15211" fill="white">
<path d="M307.333 25.2666H319.967V37.8999H307.333V25.2666Z"/>
</mask>
<path d="M319.967 37.8999V38.0973H320.164V37.8999H319.967ZM319.769 25.2666V37.8999H320.164V25.2666H319.769ZM319.967 37.7025H307.333V38.0973H319.967V37.7025Z" fill="#D0D5DD" mask="url(#path-143-inside-71_1_15211)"/>
<mask id="path-145-inside-72_1_15211" fill="white">
<path d="M319.967 25.2666H332.6V37.8999H319.967V25.2666Z"/>
</mask>
<path d="M319.967 25.2666H332.6V37.8999H319.967V25.2666Z" fill="#F2F4F7"/>
<path d="M332.6 37.8999V38.0973H332.797V37.8999H332.6ZM332.403 25.2666V37.8999H332.797V25.2666H332.403ZM332.6 37.7025H319.967V38.0973H332.6V37.7025Z" fill="#D0D5DD" mask="url(#path-145-inside-72_1_15211)"/>
<mask id="path-147-inside-73_1_15211" fill="white">
<path d="M29.4 37.9004H42.0333V50.5337H29.4V37.9004Z"/>
</mask>
<path d="M29.4 37.9004H42.0333V50.5337H29.4V37.9004Z" fill="#F2F4F7"/>
<path d="M42.0333 50.5337V50.7311H42.2307V50.5337H42.0333ZM41.8359 37.9004V50.5337H42.2307V37.9004H41.8359ZM42.0333 50.3363H29.4V50.7311H42.0333V50.3363Z" fill="#D0D5DD" mask="url(#path-147-inside-73_1_15211)"/>
<mask id="path-149-inside-74_1_15211" fill="white">
<path d="M42.0333 37.9004H54.6667V50.5337H42.0333V37.9004Z"/>
</mask>
<path d="M54.6667 50.5337V50.7311H54.8641V50.5337H54.6667ZM54.4693 37.9004V50.5337H54.8641V37.9004H54.4693ZM54.6667 50.3363H42.0333V50.7311H54.6667V50.3363Z" fill="#D0D5DD" mask="url(#path-149-inside-74_1_15211)"/>
<mask id="path-151-inside-75_1_15211" fill="white">
<path d="M54.6667 37.9004H67.3V50.5337H54.6667V37.9004Z"/>
</mask>
<path d="M67.3 50.5337V50.7311H67.4974V50.5337H67.3ZM67.1026 37.9004V50.5337H67.4974V37.9004H67.1026ZM67.3 50.3363H54.6667V50.7311H67.3V50.3363Z" fill="#D0D5DD" mask="url(#path-151-inside-75_1_15211)"/>
<mask id="path-153-inside-76_1_15211" fill="white">
<path d="M67.3 37.9004H79.9333V50.5337H67.3V37.9004Z"/>
</mask>
<path d="M67.3 37.9004H79.9333V50.5337H67.3V37.9004Z" fill="#F2F4F7"/>
<path d="M79.9333 50.5337V50.7311H80.1307V50.5337H79.9333ZM79.7359 37.9004V50.5337H80.1307V37.9004H79.7359ZM79.9333 50.3363H67.3V50.7311H79.9333V50.3363Z" fill="#D0D5DD" mask="url(#path-153-inside-76_1_15211)"/>
<mask id="path-155-inside-77_1_15211" fill="white">
<path d="M79.9333 37.9004H92.5667V50.5337H79.9333V37.9004Z"/>
</mask>
<path d="M92.5667 50.5337V50.7311H92.7641V50.5337H92.5667ZM92.3693 37.9004V50.5337H92.7641V37.9004H92.3693ZM92.5667 50.3363H79.9333V50.7311H92.5667V50.3363Z" fill="#D0D5DD" mask="url(#path-155-inside-77_1_15211)"/>
<mask id="path-157-inside-78_1_15211" fill="white">
<path d="M92.5667 37.9004H105.2V50.5337H92.5667V37.9004Z"/>
</mask>
<path d="M105.2 50.5337V50.7311H105.397V50.5337H105.2ZM105.003 37.9004V50.5337H105.397V37.9004H105.003ZM105.2 50.3363H92.5667V50.7311H105.2V50.3363Z" fill="#D0D5DD" mask="url(#path-157-inside-78_1_15211)"/>
<mask id="path-159-inside-79_1_15211" fill="white">
<path d="M105.2 37.9004H117.833V50.5337H105.2V37.9004Z"/>
</mask>
<path d="M117.833 50.5337V50.7311H118.031V50.5337H117.833ZM117.636 37.9004V50.5337H118.031V37.9004H117.636ZM117.833 50.3363H105.2V50.7311H117.833V50.3363Z" fill="#D0D5DD" mask="url(#path-159-inside-79_1_15211)"/>
<mask id="path-161-inside-80_1_15211" fill="white">
<path d="M117.833 37.9004H130.467V50.5337H117.833V37.9004Z"/>
</mask>
<path d="M130.467 50.5337V50.7311H130.664V50.5337H130.467ZM130.269 37.9004V50.5337H130.664V37.9004H130.269ZM130.467 50.3363H117.833V50.7311H130.467V50.3363Z" fill="#D0D5DD" mask="url(#path-161-inside-80_1_15211)"/>
<mask id="path-163-inside-81_1_15211" fill="white">
<path d="M130.467 37.9004H143.1V50.5337H130.467V37.9004Z"/>
</mask>
<path d="M143.1 50.5337V50.7311H143.297V50.5337H143.1ZM142.903 37.9004V50.5337H143.297V37.9004H142.903ZM143.1 50.3363H130.467V50.7311H143.1V50.3363Z" fill="#D0D5DD" mask="url(#path-163-inside-81_1_15211)"/>
<mask id="path-165-inside-82_1_15211" fill="white">
<path d="M143.1 37.9004H155.733V50.5337H143.1V37.9004Z"/>
</mask>
<path d="M155.733 50.5337V50.7311H155.931V50.5337H155.733ZM155.536 37.9004V50.5337H155.931V37.9004H155.536ZM155.733 50.3363H143.1V50.7311H155.733V50.3363Z" fill="#D0D5DD" mask="url(#path-165-inside-82_1_15211)"/>
<mask id="path-167-inside-83_1_15211" fill="white">
<path d="M155.733 37.9004H168.367V50.5337H155.733V37.9004Z"/>
</mask>
<path d="M168.367 50.5337V50.7311H168.564V50.5337H168.367ZM168.169 37.9004V50.5337H168.564V37.9004H168.169ZM168.367 50.3363H155.733V50.7311H168.367V50.3363Z" fill="#D0D5DD" mask="url(#path-167-inside-83_1_15211)"/>
<mask id="path-169-inside-84_1_15211" fill="white">
<path d="M168.367 37.9004H181V50.5337H168.367V37.9004Z"/>
</mask>
<path d="M181 50.5337V50.7311H181.197V50.5337H181ZM180.803 37.9004V50.5337H181.197V37.9004H180.803ZM181 50.3363H168.367V50.7311H181V50.3363Z" fill="#D0D5DD" mask="url(#path-169-inside-84_1_15211)"/>
<mask id="path-171-inside-85_1_15211" fill="white">
<path d="M181 37.9004H193.633V50.5337H181V37.9004Z"/>
</mask>
<path d="M193.633 50.5337V50.7311H193.831V50.5337H193.633ZM193.436 37.9004V50.5337H193.831V37.9004H193.436ZM193.633 50.3363H181V50.7311H193.633V50.3363Z" fill="#D0D5DD" mask="url(#path-171-inside-85_1_15211)"/>
<mask id="path-173-inside-86_1_15211" fill="white">
<path d="M193.633 37.9004H206.267V50.5337H193.633V37.9004Z"/>
</mask>
<path d="M206.267 50.5337V50.7311H206.464V50.5337H206.267ZM206.069 37.9004V50.5337H206.464V37.9004H206.069ZM206.267 50.3363H193.633V50.7311H206.267V50.3363Z" fill="#D0D5DD" mask="url(#path-173-inside-86_1_15211)"/>
<mask id="path-175-inside-87_1_15211" fill="white">
<path d="M206.267 37.9004H218.9V50.5337H206.267V37.9004Z"/>
</mask>
<path d="M218.9 50.5337V50.7311H219.097V50.5337H218.9ZM218.703 37.9004V50.5337H219.097V37.9004H218.703ZM218.9 50.3363H206.267V50.7311H218.9V50.3363Z" fill="#D0D5DD" mask="url(#path-175-inside-87_1_15211)"/>
<mask id="path-177-inside-88_1_15211" fill="white">
<path d="M218.9 37.9004H231.533V50.5337H218.9V37.9004Z"/>
</mask>
<path d="M231.533 50.5337V50.7311H231.731V50.5337H231.533ZM231.336 37.9004V50.5337H231.731V37.9004H231.336ZM231.533 50.3363H218.9V50.7311H231.533V50.3363Z" fill="#D0D5DD" mask="url(#path-177-inside-88_1_15211)"/>
<mask id="path-179-inside-89_1_15211" fill="white">
<path d="M231.533 37.9004H244.167V50.5337H231.533V37.9004Z"/>
</mask>
<path d="M244.167 50.5337V50.7311H244.364V50.5337H244.167ZM243.969 37.9004V50.5337H244.364V37.9004H243.969ZM244.167 50.3363H231.533V50.7311H244.167V50.3363Z" fill="#D0D5DD" mask="url(#path-179-inside-89_1_15211)"/>
<mask id="path-181-inside-90_1_15211" fill="white">
<path d="M244.167 37.9004H256.8V50.5337H244.167V37.9004Z"/>
</mask>
<path d="M244.167 37.9004H256.8V50.5337H244.167V37.9004Z" fill="#F2F4F7"/>
<path d="M256.8 50.5337V50.7311H256.997V50.5337H256.8ZM256.603 37.9004V50.5337H256.997V37.9004H256.603ZM256.8 50.3363H244.167V50.7311H256.8V50.3363Z" fill="#D0D5DD" mask="url(#path-181-inside-90_1_15211)"/>
<mask id="path-183-inside-91_1_15211" fill="white">
<path d="M256.8 37.9004H269.433V50.5337H256.8V37.9004Z"/>
</mask>
<path d="M269.433 50.5337V50.7311H269.631V50.5337H269.433ZM269.236 37.9004V50.5337H269.631V37.9004H269.236ZM269.433 50.3363H256.8V50.7311H269.433V50.3363Z" fill="#D0D5DD" mask="url(#path-183-inside-91_1_15211)"/>
<mask id="path-185-inside-92_1_15211" fill="white">
<path d="M269.433 37.9004H282.067V50.5337H269.433V37.9004Z"/>
</mask>
<path d="M282.067 50.5337V50.7311H282.264V50.5337H282.067ZM281.869 37.9004V50.5337H282.264V37.9004H281.869ZM282.067 50.3363H269.433V50.7311H282.067V50.3363Z" fill="#D0D5DD" mask="url(#path-185-inside-92_1_15211)"/>
<mask id="path-187-inside-93_1_15211" fill="white">
<path d="M282.067 37.9004H294.7V50.5337H282.067V37.9004Z"/>
</mask>
<path d="M294.7 50.5337V50.7311H294.897V50.5337H294.7ZM294.503 37.9004V50.5337H294.897V37.9004H294.503ZM294.7 50.3363H282.067V50.7311H294.7V50.3363Z" fill="#D0D5DD" mask="url(#path-187-inside-93_1_15211)"/>
<mask id="path-189-inside-94_1_15211" fill="white">
<path d="M294.7 37.9004H307.333V50.5337H294.7V37.9004Z"/>
</mask>
<path d="M307.333 50.5337V50.7311H307.531V50.5337H307.333ZM307.136 37.9004V50.5337H307.531V37.9004H307.136ZM307.333 50.3363H294.7V50.7311H307.333V50.3363Z" fill="#D0D5DD" mask="url(#path-189-inside-94_1_15211)"/>
<mask id="path-191-inside-95_1_15211" fill="white">
<path d="M307.333 37.9004H319.967V50.5337H307.333V37.9004Z"/>
</mask>
<path d="M319.967 50.5337V50.7311H320.164V50.5337H319.967ZM319.769 37.9004V50.5337H320.164V37.9004H319.769ZM319.967 50.3363H307.333V50.7311H319.967V50.3363Z" fill="#D0D5DD" mask="url(#path-191-inside-95_1_15211)"/>
<mask id="path-193-inside-96_1_15211" fill="white">
<path d="M319.967 37.9004H332.6V50.5337H319.967V37.9004Z"/>
</mask>
<path d="M332.6 50.5337V50.7311H332.797V50.5337H332.6ZM332.403 37.9004V50.5337H332.797V37.9004H332.403ZM332.6 50.3363H319.967V50.7311H332.6V50.3363Z" fill="#D0D5DD" mask="url(#path-193-inside-96_1_15211)"/>
<mask id="path-195-inside-97_1_15211" fill="white">
<path d="M29.4 50.5332H42.0333V63.1665H29.4V50.5332Z"/>
</mask>
<path d="M42.0333 63.1665V63.3639H42.2307V63.1665H42.0333ZM41.8359 50.5332V63.1665H42.2307V50.5332H41.8359ZM42.0333 62.9691H29.4V63.3639H42.0333V62.9691Z" fill="#D0D5DD" mask="url(#path-195-inside-97_1_15211)"/>
<mask id="path-197-inside-98_1_15211" fill="white">
<path d="M42.0333 50.5332H54.6667V63.1665H42.0333V50.5332Z"/>
</mask>
<path d="M54.6667 63.1665V63.3639H54.8641V63.1665H54.6667ZM54.4693 50.5332V63.1665H54.8641V50.5332H54.4693ZM54.6667 62.9691H42.0333V63.3639H54.6667V62.9691Z" fill="#D0D5DD" mask="url(#path-197-inside-98_1_15211)"/>
<mask id="path-199-inside-99_1_15211" fill="white">
<path d="M54.6667 50.5332H67.3V63.1665H54.6667V50.5332Z"/>
</mask>
<path d="M67.3 63.1665V63.3639H67.4974V63.1665H67.3ZM67.1026 50.5332V63.1665H67.4974V50.5332H67.1026ZM67.3 62.9691H54.6667V63.3639H67.3V62.9691Z" fill="#D0D5DD" mask="url(#path-199-inside-99_1_15211)"/>
<mask id="path-201-inside-100_1_15211" fill="white">
<path d="M67.3 50.5332H79.9333V63.1665H67.3V50.5332Z"/>
</mask>
<path d="M79.9333 63.1665V63.3639H80.1307V63.1665H79.9333ZM79.7359 50.5332V63.1665H80.1307V50.5332H79.7359ZM79.9333 62.9691H67.3V63.3639H79.9333V62.9691Z" fill="#D0D5DD" mask="url(#path-201-inside-100_1_15211)"/>
<mask id="path-203-inside-101_1_15211" fill="white">
<path d="M79.9333 50.5332H92.5667V63.1665H79.9333V50.5332Z"/>
</mask>
<path d="M92.5667 63.1665V63.3639H92.7641V63.1665H92.5667ZM92.3693 50.5332V63.1665H92.7641V50.5332H92.3693ZM92.5667 62.9691H79.9333V63.3639H92.5667V62.9691Z" fill="#D0D5DD" mask="url(#path-203-inside-101_1_15211)"/>
<mask id="path-205-inside-102_1_15211" fill="white">
<path d="M92.5667 50.5332H105.2V63.1665H92.5667V50.5332Z"/>
</mask>
<path d="M92.5667 50.5332H105.2V63.1665H92.5667V50.5332Z" fill="#F2F4F7"/>
<path d="M105.2 63.1665V63.3639H105.397V63.1665H105.2ZM105.003 50.5332V63.1665H105.397V50.5332H105.003ZM105.2 62.9691H92.5667V63.3639H105.2V62.9691Z" fill="#D0D5DD" mask="url(#path-205-inside-102_1_15211)"/>
<mask id="path-207-inside-103_1_15211" fill="white">
<path d="M105.2 50.5332H117.833V63.1665H105.2V50.5332Z"/>
</mask>
<path d="M117.833 63.1665V63.3639H118.031V63.1665H117.833ZM117.636 50.5332V63.1665H118.031V50.5332H117.636ZM117.833 62.9691H105.2V63.3639H117.833V62.9691Z" fill="#D0D5DD" mask="url(#path-207-inside-103_1_15211)"/>
<mask id="path-209-inside-104_1_15211" fill="white">
<path d="M117.833 50.5332H130.467V63.1665H117.833V50.5332Z"/>
</mask>
<path d="M130.467 63.1665V63.3639H130.664V63.1665H130.467ZM130.269 50.5332V63.1665H130.664V50.5332H130.269ZM130.467 62.9691H117.833V63.3639H130.467V62.9691Z" fill="#D0D5DD" mask="url(#path-209-inside-104_1_15211)"/>
<mask id="path-211-inside-105_1_15211" fill="white">
<path d="M130.467 50.5332H143.1V63.1665H130.467V50.5332Z"/>
</mask>
<path d="M143.1 63.1665V63.3639H143.297V63.1665H143.1ZM142.903 50.5332V63.1665H143.297V50.5332H142.903ZM143.1 62.9691H130.467V63.3639H143.1V62.9691Z" fill="#D0D5DD" mask="url(#path-211-inside-105_1_15211)"/>
<mask id="path-213-inside-106_1_15211" fill="white">
<path d="M143.1 50.5332H155.733V63.1665H143.1V50.5332Z"/>
</mask>
<path d="M155.733 63.1665V63.3639H155.931V63.1665H155.733ZM155.536 50.5332V63.1665H155.931V50.5332H155.536ZM155.733 62.9691H143.1V63.3639H155.733V62.9691Z" fill="#D0D5DD" mask="url(#path-213-inside-106_1_15211)"/>
<mask id="path-215-inside-107_1_15211" fill="white">
<path d="M155.733 50.5332H168.367V63.1665H155.733V50.5332Z"/>
</mask>
<path d="M155.733 50.5332H168.367V63.1665H155.733V50.5332Z" fill="#F2F4F7"/>
<path d="M168.367 63.1665V63.3639H168.564V63.1665H168.367ZM168.169 50.5332V63.1665H168.564V50.5332H168.169ZM168.367 62.9691H155.733V63.3639H168.367V62.9691Z" fill="#D0D5DD" mask="url(#path-215-inside-107_1_15211)"/>
<mask id="path-217-inside-108_1_15211" fill="white">
<path d="M168.367 50.5332H181V63.1665H168.367V50.5332Z"/>
</mask>
<path d="M181 63.1665V63.3639H181.197V63.1665H181ZM180.803 50.5332V63.1665H181.197V50.5332H180.803ZM181 62.9691H168.367V63.3639H181V62.9691Z" fill="#D0D5DD" mask="url(#path-217-inside-108_1_15211)"/>
<mask id="path-219-inside-109_1_15211" fill="white">
<path d="M181 50.5332H193.633V63.1665H181V50.5332Z"/>
</mask>
<path d="M193.633 63.1665V63.3639H193.831V63.1665H193.633ZM193.436 50.5332V63.1665H193.831V50.5332H193.436ZM193.633 62.9691H181V63.3639H193.633V62.9691Z" fill="#D0D5DD" mask="url(#path-219-inside-109_1_15211)"/>
<mask id="path-221-inside-110_1_15211" fill="white">
<path d="M193.633 50.5332H206.267V63.1665H193.633V50.5332Z"/>
</mask>
<path d="M206.267 63.1665V63.3639H206.464V63.1665H206.267ZM206.069 50.5332V63.1665H206.464V50.5332H206.069ZM206.267 62.9691H193.633V63.3639H206.267V62.9691Z" fill="#D0D5DD" mask="url(#path-221-inside-110_1_15211)"/>
<mask id="path-223-inside-111_1_15211" fill="white">
<path d="M206.267 50.5332H218.9V63.1665H206.267V50.5332Z"/>
</mask>
<path d="M218.9 63.1665V63.3639H219.097V63.1665H218.9ZM218.703 50.5332V63.1665H219.097V50.5332H218.703ZM218.9 62.9691H206.267V63.3639H218.9V62.9691Z" fill="#D0D5DD" mask="url(#path-223-inside-111_1_15211)"/>
<mask id="path-225-inside-112_1_15211" fill="white">
<path d="M218.9 50.5332H231.533V63.1665H218.9V50.5332Z"/>
</mask>
<path d="M231.533 63.1665V63.3639H231.731V63.1665H231.533ZM231.336 50.5332V63.1665H231.731V50.5332H231.336ZM231.533 62.9691H218.9V63.3639H231.533V62.9691Z" fill="#D0D5DD" mask="url(#path-225-inside-112_1_15211)"/>
<mask id="path-227-inside-113_1_15211" fill="white">
<path d="M231.533 50.5332H244.167V63.1665H231.533V50.5332Z"/>
</mask>
<path d="M244.167 63.1665V63.3639H244.364V63.1665H244.167ZM243.969 50.5332V63.1665H244.364V50.5332H243.969ZM244.167 62.9691H231.533V63.3639H244.167V62.9691Z" fill="#D0D5DD" mask="url(#path-227-inside-113_1_15211)"/>
<mask id="path-229-inside-114_1_15211" fill="white">
<path d="M244.167 50.5332H256.8V63.1665H244.167V50.5332Z"/>
</mask>
<path d="M256.8 63.1665V63.3639H256.997V63.1665H256.8ZM256.603 50.5332V63.1665H256.997V50.5332H256.603ZM256.8 62.9691H244.167V63.3639H256.8V62.9691Z" fill="#D0D5DD" mask="url(#path-229-inside-114_1_15211)"/>
<mask id="path-231-inside-115_1_15211" fill="white">
<path d="M256.8 50.5332H269.433V63.1665H256.8V50.5332Z"/>
</mask>
<path d="M269.433 63.1665V63.3639H269.631V63.1665H269.433ZM269.236 50.5332V63.1665H269.631V50.5332H269.236ZM269.433 62.9691H256.8V63.3639H269.433V62.9691Z" fill="#D0D5DD" mask="url(#path-231-inside-115_1_15211)"/>
<mask id="path-233-inside-116_1_15211" fill="white">
<path d="M269.433 50.5332H282.067V63.1665H269.433V50.5332Z"/>
</mask>
<path d="M282.067 63.1665V63.3639H282.264V63.1665H282.067ZM281.869 50.5332V63.1665H282.264V50.5332H281.869ZM282.067 62.9691H269.433V63.3639H282.067V62.9691Z" fill="#D0D5DD" mask="url(#path-233-inside-116_1_15211)"/>
<mask id="path-235-inside-117_1_15211" fill="white">
<path d="M282.067 50.5332H294.7V63.1665H282.067V50.5332Z"/>
</mask>
<path d="M294.7 63.1665V63.3639H294.897V63.1665H294.7ZM294.503 50.5332V63.1665H294.897V50.5332H294.503ZM294.7 62.9691H282.067V63.3639H294.7V62.9691Z" fill="#D0D5DD" mask="url(#path-235-inside-117_1_15211)"/>
<mask id="path-237-inside-118_1_15211" fill="white">
<path d="M294.7 50.5332H307.333V63.1665H294.7V50.5332Z"/>
</mask>
<path d="M294.7 50.5332H307.333V63.1665H294.7V50.5332Z" fill="#F2F4F7"/>
<path d="M307.333 63.1665V63.3639H307.531V63.1665H307.333ZM307.136 50.5332V63.1665H307.531V50.5332H307.136ZM307.333 62.9691H294.7V63.3639H307.333V62.9691Z" fill="#D0D5DD" mask="url(#path-237-inside-118_1_15211)"/>
<mask id="path-239-inside-119_1_15211" fill="white">
<path d="M307.333 50.5332H319.967V63.1665H307.333V50.5332Z"/>
</mask>
<path d="M319.967 63.1665V63.3639H320.164V63.1665H319.967ZM319.769 50.5332V63.1665H320.164V50.5332H319.769ZM319.967 62.9691H307.333V63.3639H319.967V62.9691Z" fill="#D0D5DD" mask="url(#path-239-inside-119_1_15211)"/>
<mask id="path-241-inside-120_1_15211" fill="white">
<path d="M319.967 50.5332H332.6V63.1665H319.967V50.5332Z"/>
</mask>
<path d="M332.6 63.1665V63.3639H332.797V63.1665H332.6ZM332.403 50.5332V63.1665H332.797V50.5332H332.403ZM332.6 62.9691H319.967V63.3639H332.6V62.9691Z" fill="#D0D5DD" mask="url(#path-241-inside-120_1_15211)"/>
<mask id="path-243-inside-121_1_15211" fill="white">
<path d="M29.4 63.167H42.0333V75.8003H29.4V63.167Z"/>
</mask>
<path d="M42.0333 75.8003V75.9977H42.2307V75.8003H42.0333ZM41.8359 63.167V75.8003H42.2307V63.167H41.8359ZM42.0333 75.6029H29.4V75.9977H42.0333V75.6029Z" fill="#D0D5DD" mask="url(#path-243-inside-121_1_15211)"/>
<mask id="path-245-inside-122_1_15211" fill="white">
<path d="M42.0333 63.167H54.6667V75.8003H42.0333V63.167Z"/>
</mask>
<path d="M54.6667 75.8003V75.9977H54.8641V75.8003H54.6667ZM54.4693 63.167V75.8003H54.8641V63.167H54.4693ZM54.6667 75.6029H42.0333V75.9977H54.6667V75.6029Z" fill="#D0D5DD" mask="url(#path-245-inside-122_1_15211)"/>
<mask id="path-247-inside-123_1_15211" fill="white">
<path d="M54.6667 63.167H67.3V75.8003H54.6667V63.167Z"/>
</mask>
<path d="M67.3 75.8003V75.9977H67.4974V75.8003H67.3ZM67.1026 63.167V75.8003H67.4974V63.167H67.1026ZM67.3 75.6029H54.6667V75.9977H67.3V75.6029Z" fill="#D0D5DD" mask="url(#path-247-inside-123_1_15211)"/>
<mask id="path-249-inside-124_1_15211" fill="white">
<path d="M67.3 63.167H79.9333V75.8003H67.3V63.167Z"/>
</mask>
<path d="M79.9333 75.8003V75.9977H80.1307V75.8003H79.9333ZM79.7359 63.167V75.8003H80.1307V63.167H79.7359ZM79.9333 75.6029H67.3V75.9977H79.9333V75.6029Z" fill="#D0D5DD" mask="url(#path-249-inside-124_1_15211)"/>
<mask id="path-251-inside-125_1_15211" fill="white">
<path d="M79.9333 63.167H92.5667V75.8003H79.9333V63.167Z"/>
</mask>
<path d="M92.5667 75.8003V75.9977H92.7641V75.8003H92.5667ZM92.3693 63.167V75.8003H92.7641V63.167H92.3693ZM92.5667 75.6029H79.9333V75.9977H92.5667V75.6029Z" fill="#D0D5DD" mask="url(#path-251-inside-125_1_15211)"/>
<mask id="path-253-inside-126_1_15211" fill="white">
<path d="M92.5667 63.167H105.2V75.8003H92.5667V63.167Z"/>
</mask>
<path d="M105.2 75.8003V75.9977H105.397V75.8003H105.2ZM105.003 63.167V75.8003H105.397V63.167H105.003ZM105.2 75.6029H92.5667V75.9977H105.2V75.6029Z" fill="#D0D5DD" mask="url(#path-253-inside-126_1_15211)"/>
<mask id="path-255-inside-127_1_15211" fill="white">
<path d="M105.2 63.167H117.833V75.8003H105.2V63.167Z"/>
</mask>
<path d="M117.833 75.8003V75.9977H118.031V75.8003H117.833ZM117.636 63.167V75.8003H118.031V63.167H117.636ZM117.833 75.6029H105.2V75.9977H117.833V75.6029Z" fill="#D0D5DD" mask="url(#path-255-inside-127_1_15211)"/>
<mask id="path-257-inside-128_1_15211" fill="white">
<path d="M117.833 63.167H130.467V75.8003H117.833V63.167Z"/>
</mask>
<path d="M130.467 75.8003V75.9977H130.664V75.8003H130.467ZM130.269 63.167V75.8003H130.664V63.167H130.269ZM130.467 75.6029H117.833V75.9977H130.467V75.6029Z" fill="#D0D5DD" mask="url(#path-257-inside-128_1_15211)"/>
<mask id="path-259-inside-129_1_15211" fill="white">
<path d="M130.467 63.167H143.1V75.8003H130.467V63.167Z"/>
</mask>
<path d="M130.467 63.167H143.1V75.8003H130.467V63.167Z" fill="#F2F4F7"/>
<path d="M143.1 75.8003V75.9977H143.297V75.8003H143.1ZM142.903 63.167V75.8003H143.297V63.167H142.903ZM143.1 75.6029H130.467V75.9977H143.1V75.6029Z" fill="#D0D5DD" mask="url(#path-259-inside-129_1_15211)"/>
<mask id="path-261-inside-130_1_15211" fill="white">
<path d="M143.1 63.167H155.733V75.8003H143.1V63.167Z"/>
</mask>
<path d="M155.733 75.8003V75.9977H155.931V75.8003H155.733ZM155.536 63.167V75.8003H155.931V63.167H155.536ZM155.733 75.6029H143.1V75.9977H155.733V75.6029Z" fill="#D0D5DD" mask="url(#path-261-inside-130_1_15211)"/>
<mask id="path-263-inside-131_1_15211" fill="white">
<path d="M155.733 63.167H168.367V75.8003H155.733V63.167Z"/>
</mask>
<path d="M168.367 75.8003V75.9977H168.564V75.8003H168.367ZM168.169 63.167V75.8003H168.564V63.167H168.169ZM168.367 75.6029H155.733V75.9977H168.367V75.6029Z" fill="#D0D5DD" mask="url(#path-263-inside-131_1_15211)"/>
<mask id="path-265-inside-132_1_15211" fill="white">
<path d="M168.367 63.167H181V75.8003H168.367V63.167Z"/>
</mask>
<path d="M181 75.8003V75.9977H181.197V75.8003H181ZM180.803 63.167V75.8003H181.197V63.167H180.803ZM181 75.6029H168.367V75.9977H181V75.6029Z" fill="#D0D5DD" mask="url(#path-265-inside-132_1_15211)"/>
<mask id="path-267-inside-133_1_15211" fill="white">
<path d="M181 63.167H193.633V75.8003H181V63.167Z"/>
</mask>
<path d="M193.633 75.8003V75.9977H193.831V75.8003H193.633ZM193.436 63.167V75.8003H193.831V63.167H193.436ZM193.633 75.6029H181V75.9977H193.633V75.6029Z" fill="#D0D5DD" mask="url(#path-267-inside-133_1_15211)"/>
<mask id="path-269-inside-134_1_15211" fill="white">
<path d="M193.633 63.167H206.267V75.8003H193.633V63.167Z"/>
</mask>
<path d="M206.267 75.8003V75.9977H206.464V75.8003H206.267ZM206.069 63.167V75.8003H206.464V63.167H206.069ZM206.267 75.6029H193.633V75.9977H206.267V75.6029Z" fill="#D0D5DD" mask="url(#path-269-inside-134_1_15211)"/>
<mask id="path-271-inside-135_1_15211" fill="white">
<path d="M206.267 63.167H218.9V75.8003H206.267V63.167Z"/>
</mask>
<path d="M206.267 63.167H218.9V75.8003H206.267V63.167Z" fill="#F2F4F7"/>
<path d="M218.9 75.8003V75.9977H219.097V75.8003H218.9ZM218.703 63.167V75.8003H219.097V63.167H218.703ZM218.9 75.6029H206.267V75.9977H218.9V75.6029Z" fill="#D0D5DD" mask="url(#path-271-inside-135_1_15211)"/>
<mask id="path-273-inside-136_1_15211" fill="white">
<path d="M218.9 63.167H231.533V75.8003H218.9V63.167Z"/>
</mask>
<path d="M231.533 75.8003V75.9977H231.731V75.8003H231.533ZM231.336 63.167V75.8003H231.731V63.167H231.336ZM231.533 75.6029H218.9V75.9977H231.533V75.6029Z" fill="#D0D5DD" mask="url(#path-273-inside-136_1_15211)"/>
<mask id="path-275-inside-137_1_15211" fill="white">
<path d="M231.533 63.167H244.167V75.8003H231.533V63.167Z"/>
</mask>
<path d="M244.167 75.8003V75.9977H244.364V75.8003H244.167ZM243.969 63.167V75.8003H244.364V63.167H243.969ZM244.167 75.6029H231.533V75.9977H244.167V75.6029Z" fill="#D0D5DD" mask="url(#path-275-inside-137_1_15211)"/>
<mask id="path-277-inside-138_1_15211" fill="white">
<path d="M244.167 63.167H256.8V75.8003H244.167V63.167Z"/>
</mask>
<path d="M244.167 63.167H256.8V75.8003H244.167V63.167Z" fill="#F2F4F7"/>
<path d="M256.8 75.8003V75.9977H256.997V75.8003H256.8ZM256.603 63.167V75.8003H256.997V63.167H256.603ZM256.8 75.6029H244.167V75.9977H256.8V75.6029Z" fill="#D0D5DD" mask="url(#path-277-inside-138_1_15211)"/>
<mask id="path-279-inside-139_1_15211" fill="white">
<path d="M256.8 63.167H269.433V75.8003H256.8V63.167Z"/>
</mask>
<path d="M269.433 75.8003V75.9977H269.631V75.8003H269.433ZM269.236 63.167V75.8003H269.631V63.167H269.236ZM269.433 75.6029H256.8V75.9977H269.433V75.6029Z" fill="#D0D5DD" mask="url(#path-279-inside-139_1_15211)"/>
<mask id="path-281-inside-140_1_15211" fill="white">
<path d="M269.433 63.167H282.067V75.8003H269.433V63.167Z"/>
</mask>
<path d="M282.067 75.8003V75.9977H282.264V75.8003H282.067ZM281.869 63.167V75.8003H282.264V63.167H281.869ZM282.067 75.6029H269.433V75.9977H282.067V75.6029Z" fill="#D0D5DD" mask="url(#path-281-inside-140_1_15211)"/>
<mask id="path-283-inside-141_1_15211" fill="white">
<path d="M282.067 63.167H294.7V75.8003H282.067V63.167Z"/>
</mask>
<path d="M294.7 75.8003V75.9977H294.897V75.8003H294.7ZM294.503 63.167V75.8003H294.897V63.167H294.503ZM294.7 75.6029H282.067V75.9977H294.7V75.6029Z" fill="#D0D5DD" mask="url(#path-283-inside-141_1_15211)"/>
<mask id="path-285-inside-142_1_15211" fill="white">
<path d="M294.7 63.167H307.333V75.8003H294.7V63.167Z"/>
</mask>
<path d="M307.333 75.8003V75.9977H307.531V75.8003H307.333ZM307.136 63.167V75.8003H307.531V63.167H307.136ZM307.333 75.6029H294.7V75.9977H307.333V75.6029Z" fill="#D0D5DD" mask="url(#path-285-inside-142_1_15211)"/>
<mask id="path-287-inside-143_1_15211" fill="white">
<path d="M307.333 63.167H319.967V75.8003H307.333V63.167Z"/>
</mask>
<path d="M319.967 75.8003V75.9977H320.164V75.8003H319.967ZM319.769 63.167V75.8003H320.164V63.167H319.769ZM319.967 75.6029H307.333V75.9977H319.967V75.6029Z" fill="#D0D5DD" mask="url(#path-287-inside-143_1_15211)"/>
<mask id="path-289-inside-144_1_15211" fill="white">
<path d="M319.967 63.167H332.6V75.8003H319.967V63.167Z"/>
</mask>
<path d="M332.6 75.8003V75.9977H332.797V75.8003H332.6ZM332.403 63.167V75.8003H332.797V63.167H332.403ZM332.6 75.6029H319.967V75.9977H332.6V75.6029Z" fill="#D0D5DD" mask="url(#path-289-inside-144_1_15211)"/>
<mask id="path-291-inside-145_1_15211" fill="white">
<path d="M29.4 75.7998H42.0333V88.4331H29.4V75.7998Z"/>
</mask>
<path d="M42.0333 88.4331V88.6305H42.2307V88.4331H42.0333ZM41.8359 75.7998V88.4331H42.2307V75.7998H41.8359ZM42.0333 88.2357H29.4V88.6305H42.0333V88.2357Z" fill="#D0D5DD" mask="url(#path-291-inside-145_1_15211)"/>
<mask id="path-293-inside-146_1_15211" fill="white">
<path d="M42.0333 75.7998H54.6667V88.4331H42.0333V75.7998Z"/>
</mask>
<path d="M54.6667 88.4331V88.6305H54.8641V88.4331H54.6667ZM54.4693 75.7998V88.4331H54.8641V75.7998H54.4693ZM54.6667 88.2357H42.0333V88.6305H54.6667V88.2357Z" fill="#D0D5DD" mask="url(#path-293-inside-146_1_15211)"/>
<mask id="path-295-inside-147_1_15211" fill="white">
<path d="M54.6667 75.7998H67.3V88.4331H54.6667V75.7998Z"/>
</mask>
<path d="M67.3 88.4331V88.6305H67.4974V88.4331H67.3ZM67.1026 75.7998V88.4331H67.4974V75.7998H67.1026ZM67.3 88.2357H54.6667V88.6305H67.3V88.2357Z" fill="#D0D5DD" mask="url(#path-295-inside-147_1_15211)"/>
<mask id="path-297-inside-148_1_15211" fill="white">
<path d="M67.3 75.7998H79.9333V88.4331H67.3V75.7998Z"/>
</mask>
<path d="M79.9333 88.4331V88.6305H80.1307V88.4331H79.9333ZM79.7359 75.7998V88.4331H80.1307V75.7998H79.7359ZM79.9333 88.2357H67.3V88.6305H79.9333V88.2357Z" fill="#D0D5DD" mask="url(#path-297-inside-148_1_15211)"/>
<mask id="path-299-inside-149_1_15211" fill="white">
<path d="M79.9333 75.7998H92.5667V88.4331H79.9333V75.7998Z"/>
</mask>
<path d="M79.9333 75.7998H92.5667V88.4331H79.9333V75.7998Z" fill="#F2F4F7"/>
<path d="M92.5667 88.4331V88.6305H92.7641V88.4331H92.5667ZM92.3693 75.7998V88.4331H92.7641V75.7998H92.3693ZM92.5667 88.2357H79.9333V88.6305H92.5667V88.2357Z" fill="#D0D5DD" mask="url(#path-299-inside-149_1_15211)"/>
<mask id="path-301-inside-150_1_15211" fill="white">
<path d="M92.5667 75.7998H105.2V88.4331H92.5667V75.7998Z"/>
</mask>
<path d="M105.2 88.4331V88.6305H105.397V88.4331H105.2ZM105.003 75.7998V88.4331H105.397V75.7998H105.003ZM105.2 88.2357H92.5667V88.6305H105.2V88.2357Z" fill="#D0D5DD" mask="url(#path-301-inside-150_1_15211)"/>
<mask id="path-303-inside-151_1_15211" fill="white">
<path d="M105.2 75.7998H117.833V88.4331H105.2V75.7998Z"/>
</mask>
<path d="M117.833 88.4331V88.6305H118.031V88.4331H117.833ZM117.636 75.7998V88.4331H118.031V75.7998H117.636ZM117.833 88.2357H105.2V88.6305H117.833V88.2357Z" fill="#D0D5DD" mask="url(#path-303-inside-151_1_15211)"/>
<mask id="path-305-inside-152_1_15211" fill="white">
<path d="M117.833 75.7998H130.467V88.4331H117.833V75.7998Z"/>
</mask>
<path d="M130.467 88.4331V88.6305H130.664V88.4331H130.467ZM130.269 75.7998V88.4331H130.664V75.7998H130.269ZM130.467 88.2357H117.833V88.6305H130.467V88.2357Z" fill="#D0D5DD" mask="url(#path-305-inside-152_1_15211)"/>
<mask id="path-307-inside-153_1_15211" fill="white">
<path d="M130.467 75.7998H143.1V88.4331H130.467V75.7998Z"/>
</mask>
<path d="M143.1 88.4331V88.6305H143.297V88.4331H143.1ZM142.903 75.7998V88.4331H143.297V75.7998H142.903ZM143.1 88.2357H130.467V88.6305H143.1V88.2357Z" fill="#D0D5DD" mask="url(#path-307-inside-153_1_15211)"/>
<mask id="path-309-inside-154_1_15211" fill="white">
<path d="M143.1 75.7998H155.733V88.4331H143.1V75.7998Z"/>
</mask>
<path d="M155.733 88.4331V88.6305H155.931V88.4331H155.733ZM155.536 75.7998V88.4331H155.931V75.7998H155.536ZM155.733 88.2357H143.1V88.6305H155.733V88.2357Z" fill="#D0D5DD" mask="url(#path-309-inside-154_1_15211)"/>
<mask id="path-311-inside-155_1_15211" fill="white">
<path d="M155.733 75.7998H168.367V88.4331H155.733V75.7998Z"/>
</mask>
<path d="M168.367 88.4331V88.6305H168.564V88.4331H168.367ZM168.169 75.7998V88.4331H168.564V75.7998H168.169ZM168.367 88.2357H155.733V88.6305H168.367V88.2357Z" fill="#D0D5DD" mask="url(#path-311-inside-155_1_15211)"/>
<mask id="path-313-inside-156_1_15211" fill="white">
<path d="M168.367 75.7998H181V88.4331H168.367V75.7998Z"/>
</mask>
<path d="M168.367 75.7998H181V88.4331H168.367V75.7998Z" fill="#F2F4F7"/>
<path d="M181 88.4331V88.6305H181.197V88.4331H181ZM180.803 75.7998V88.4331H181.197V75.7998H180.803ZM181 88.2357H168.367V88.6305H181V88.2357Z" fill="#D0D5DD" mask="url(#path-313-inside-156_1_15211)"/>
<mask id="path-315-inside-157_1_15211" fill="white">
<path d="M181 75.7998H193.633V88.4331H181V75.7998Z"/>
</mask>
<path d="M193.633 88.4331V88.6305H193.831V88.4331H193.633ZM193.436 75.7998V88.4331H193.831V75.7998H193.436ZM193.633 88.2357H181V88.6305H193.633V88.2357Z" fill="#D0D5DD" mask="url(#path-315-inside-157_1_15211)"/>
<mask id="path-317-inside-158_1_15211" fill="white">
<path d="M193.633 75.7998H206.267V88.4331H193.633V75.7998Z"/>
</mask>
<path d="M206.267 88.4331V88.6305H206.464V88.4331H206.267ZM206.069 75.7998V88.4331H206.464V75.7998H206.069ZM206.267 88.2357H193.633V88.6305H206.267V88.2357Z" fill="#D0D5DD" mask="url(#path-317-inside-158_1_15211)"/>
<mask id="path-319-inside-159_1_15211" fill="white">
<path d="M206.267 75.7998H218.9V88.4331H206.267V75.7998Z"/>
</mask>
<path d="M218.9 88.4331V88.6305H219.097V88.4331H218.9ZM218.703 75.7998V88.4331H219.097V75.7998H218.703ZM218.9 88.2357H206.267V88.6305H218.9V88.2357Z" fill="#D0D5DD" mask="url(#path-319-inside-159_1_15211)"/>
<mask id="path-321-inside-160_1_15211" fill="white">
<path d="M218.9 75.7998H231.533V88.4331H218.9V75.7998Z"/>
</mask>
<path d="M231.533 88.4331V88.6305H231.731V88.4331H231.533ZM231.336 75.7998V88.4331H231.731V75.7998H231.336ZM231.533 88.2357H218.9V88.6305H231.533V88.2357Z" fill="#D0D5DD" mask="url(#path-321-inside-160_1_15211)"/>
<mask id="path-323-inside-161_1_15211" fill="white">
<path d="M231.533 75.7998H244.167V88.4331H231.533V75.7998Z"/>
</mask>
<path d="M244.167 88.4331V88.6305H244.364V88.4331H244.167ZM243.969 75.7998V88.4331H244.364V75.7998H243.969ZM244.167 88.2357H231.533V88.6305H244.167V88.2357Z" fill="#D0D5DD" mask="url(#path-323-inside-161_1_15211)"/>
<mask id="path-325-inside-162_1_15211" fill="white">
<path d="M244.167 75.7998H256.8V88.4331H244.167V75.7998Z"/>
</mask>
<path d="M256.8 88.4331V88.6305H256.997V88.4331H256.8ZM256.603 75.7998V88.4331H256.997V75.7998H256.603ZM256.8 88.2357H244.167V88.6305H256.8V88.2357Z" fill="#D0D5DD" mask="url(#path-325-inside-162_1_15211)"/>
<mask id="path-327-inside-163_1_15211" fill="white">
<path d="M256.8 75.7998H269.433V88.4331H256.8V75.7998Z"/>
</mask>
<path d="M269.433 88.4331V88.6305H269.631V88.4331H269.433ZM269.236 75.7998V88.4331H269.631V75.7998H269.236ZM269.433 88.2357H256.8V88.6305H269.433V88.2357Z" fill="#D0D5DD" mask="url(#path-327-inside-163_1_15211)"/>
<mask id="path-329-inside-164_1_15211" fill="white">
<path d="M269.433 75.7998H282.067V88.4331H269.433V75.7998Z"/>
</mask>
<path d="M282.067 88.4331V88.6305H282.264V88.4331H282.067ZM281.869 75.7998V88.4331H282.264V75.7998H281.869ZM282.067 88.2357H269.433V88.6305H282.067V88.2357Z" fill="#D0D5DD" mask="url(#path-329-inside-164_1_15211)"/>
<mask id="path-331-inside-165_1_15211" fill="white">
<path d="M282.067 75.7998H294.7V88.4331H282.067V75.7998Z"/>
</mask>
<path d="M282.067 75.7998H294.7V88.4331H282.067V75.7998Z" fill="#F2F4F7"/>
<path d="M294.7 88.4331V88.6305H294.897V88.4331H294.7ZM294.503 75.7998V88.4331H294.897V75.7998H294.503ZM294.7 88.2357H282.067V88.6305H294.7V88.2357Z" fill="#D0D5DD" mask="url(#path-331-inside-165_1_15211)"/>
<mask id="path-333-inside-166_1_15211" fill="white">
<path d="M294.7 75.7998H307.333V88.4331H294.7V75.7998Z"/>
</mask>
<path d="M307.333 88.4331V88.6305H307.531V88.4331H307.333ZM307.136 75.7998V88.4331H307.531V75.7998H307.136ZM307.333 88.2357H294.7V88.6305H307.333V88.2357Z" fill="#D0D5DD" mask="url(#path-333-inside-166_1_15211)"/>
<mask id="path-335-inside-167_1_15211" fill="white">
<path d="M307.333 75.7998H319.967V88.4331H307.333V75.7998Z"/>
</mask>
<path d="M319.967 88.4331V88.6305H320.164V88.4331H319.967ZM319.769 75.7998V88.4331H320.164V75.7998H319.769ZM319.967 88.2357H307.333V88.6305H319.967V88.2357Z" fill="#D0D5DD" mask="url(#path-335-inside-167_1_15211)"/>
<mask id="path-337-inside-168_1_15211" fill="white">
<path d="M319.967 75.7998H332.6V88.4331H319.967V75.7998Z"/>
</mask>
<path d="M332.6 88.4331V88.6305H332.797V88.4331H332.6ZM332.403 75.7998V88.4331H332.797V75.7998H332.403ZM332.6 88.2357H319.967V88.6305H332.6V88.2357Z" fill="#D0D5DD" mask="url(#path-337-inside-168_1_15211)"/>
<mask id="path-339-inside-169_1_15211" fill="white">
<path d="M29.4 88.4336H42.0333V101.067H29.4V88.4336Z"/>
</mask>
<path d="M42.0333 101.067V101.264H42.2307V101.067H42.0333ZM41.8359 88.4336V101.067H42.2307V88.4336H41.8359ZM42.0333 100.87H29.4V101.264H42.0333V100.87Z" fill="#D0D5DD" mask="url(#path-339-inside-169_1_15211)"/>
<mask id="path-341-inside-170_1_15211" fill="white">
<path d="M42.0333 88.4336H54.6667V101.067H42.0333V88.4336Z"/>
</mask>
<path d="M54.6667 101.067V101.264H54.8641V101.067H54.6667ZM54.4693 88.4336V101.067H54.8641V88.4336H54.4693ZM54.6667 100.87H42.0333V101.264H54.6667V100.87Z" fill="#D0D5DD" mask="url(#path-341-inside-170_1_15211)"/>
<mask id="path-343-inside-171_1_15211" fill="white">
<path d="M54.6667 88.4336H67.3V101.067H54.6667V88.4336Z"/>
</mask>
<path d="M67.3 101.067V101.264H67.4974V101.067H67.3ZM67.1026 88.4336V101.067H67.4974V88.4336H67.1026ZM67.3 100.87H54.6667V101.264H67.3V100.87Z" fill="#D0D5DD" mask="url(#path-343-inside-171_1_15211)"/>
<mask id="path-345-inside-172_1_15211" fill="white">
<path d="M67.3 88.4336H79.9333V101.067H67.3V88.4336Z"/>
</mask>
<path d="M79.9333 101.067V101.264H80.1307V101.067H79.9333ZM79.7359 88.4336V101.067H80.1307V88.4336H79.7359ZM79.9333 100.87H67.3V101.264H79.9333V100.87Z" fill="#D0D5DD" mask="url(#path-345-inside-172_1_15211)"/>
<mask id="path-347-inside-173_1_15211" fill="white">
<path d="M79.9333 88.4336H92.5667V101.067H79.9333V88.4336Z"/>
</mask>
<path d="M92.5667 101.067V101.264H92.7641V101.067H92.5667ZM92.3693 88.4336V101.067H92.7641V88.4336H92.3693ZM92.5667 100.87H79.9333V101.264H92.5667V100.87Z" fill="#D0D5DD" mask="url(#path-347-inside-173_1_15211)"/>
<mask id="path-349-inside-174_1_15211" fill="white">
<path d="M92.5667 88.4336H105.2V101.067H92.5667V88.4336Z"/>
</mask>
<path d="M105.2 101.067V101.264H105.397V101.067H105.2ZM105.003 88.4336V101.067H105.397V88.4336H105.003ZM105.2 100.87H92.5667V101.264H105.2V100.87Z" fill="#D0D5DD" mask="url(#path-349-inside-174_1_15211)"/>
<mask id="path-351-inside-175_1_15211" fill="white">
<path d="M105.2 88.4336H117.833V101.067H105.2V88.4336Z"/>
</mask>
<path d="M117.833 101.067V101.264H118.031V101.067H117.833ZM117.636 88.4336V101.067H118.031V88.4336H117.636ZM117.833 100.87H105.2V101.264H117.833V100.87Z" fill="#D0D5DD" mask="url(#path-351-inside-175_1_15211)"/>
<mask id="path-353-inside-176_1_15211" fill="white">
<path d="M117.833 88.4336H130.467V101.067H117.833V88.4336Z"/>
</mask>
<path d="M130.467 101.067V101.264H130.664V101.067H130.467ZM130.269 88.4336V101.067H130.664V88.4336H130.269ZM130.467 100.87H117.833V101.264H130.467V100.87Z" fill="#D0D5DD" mask="url(#path-353-inside-176_1_15211)"/>
<mask id="path-355-inside-177_1_15211" fill="white">
<path d="M130.467 88.4336H143.1V101.067H130.467V88.4336Z"/>
</mask>
<path d="M143.1 101.067V101.264H143.297V101.067H143.1ZM142.903 88.4336V101.067H143.297V88.4336H142.903ZM143.1 100.87H130.467V101.264H143.1V100.87Z" fill="#D0D5DD" mask="url(#path-355-inside-177_1_15211)"/>
<mask id="path-357-inside-178_1_15211" fill="white">
<path d="M143.1 88.4336H155.733V101.067H143.1V88.4336Z"/>
</mask>
<path d="M143.1 88.4336H155.733V101.067H143.1V88.4336Z" fill="#F2F4F7"/>
<path d="M155.733 101.067V101.264H155.931V101.067H155.733ZM155.536 88.4336V101.067H155.931V88.4336H155.536ZM155.733 100.87H143.1V101.264H155.733V100.87Z" fill="#D0D5DD" mask="url(#path-357-inside-178_1_15211)"/>
<mask id="path-359-inside-179_1_15211" fill="white">
<path d="M155.733 88.4336H168.367V101.067H155.733V88.4336Z"/>
</mask>
<path d="M168.367 101.067V101.264H168.564V101.067H168.367ZM168.169 88.4336V101.067H168.564V88.4336H168.169ZM168.367 100.87H155.733V101.264H168.367V100.87Z" fill="#D0D5DD" mask="url(#path-359-inside-179_1_15211)"/>
<mask id="path-361-inside-180_1_15211" fill="white">
<path d="M168.367 88.4336H181V101.067H168.367V88.4336Z"/>
</mask>
<path d="M181 101.067V101.264H181.197V101.067H181ZM180.803 88.4336V101.067H181.197V88.4336H180.803ZM181 100.87H168.367V101.264H181V100.87Z" fill="#D0D5DD" mask="url(#path-361-inside-180_1_15211)"/>
<mask id="path-363-inside-181_1_15211" fill="white">
<path d="M181 88.4336H193.633V101.067H181V88.4336Z"/>
</mask>
<path d="M193.633 101.067V101.264H193.831V101.067H193.633ZM193.436 88.4336V101.067H193.831V88.4336H193.436ZM193.633 100.87H181V101.264H193.633V100.87Z" fill="#D0D5DD" mask="url(#path-363-inside-181_1_15211)"/>
<mask id="path-365-inside-182_1_15211" fill="white">
<path d="M193.633 88.4336H206.267V101.067H193.633V88.4336Z"/>
</mask>
<path d="M206.267 101.067V101.264H206.464V101.067H206.267ZM206.069 88.4336V101.067H206.464V88.4336H206.069ZM206.267 100.87H193.633V101.264H206.267V100.87Z" fill="#D0D5DD" mask="url(#path-365-inside-182_1_15211)"/>
<mask id="path-367-inside-183_1_15211" fill="white">
<path d="M206.267 88.4336H218.9V101.067H206.267V88.4336Z"/>
</mask>
<path d="M218.9 101.067V101.264H219.097V101.067H218.9ZM218.703 88.4336V101.067H219.097V88.4336H218.703ZM218.9 100.87H206.267V101.264H218.9V100.87Z" fill="#D0D5DD" mask="url(#path-367-inside-183_1_15211)"/>
<mask id="path-369-inside-184_1_15211" fill="white">
<path d="M218.9 88.4336H231.533V101.067H218.9V88.4336Z"/>
</mask>
<path d="M218.9 88.4336H231.533V101.067H218.9V88.4336Z" fill="#F2F4F7"/>
<path d="M231.533 101.067V101.264H231.731V101.067H231.533ZM231.336 88.4336V101.067H231.731V88.4336H231.336ZM231.533 100.87H218.9V101.264H231.533V100.87Z" fill="#D0D5DD" mask="url(#path-369-inside-184_1_15211)"/>
<mask id="path-371-inside-185_1_15211" fill="white">
<path d="M231.533 88.4336H244.167V101.067H231.533V88.4336Z"/>
</mask>
<path d="M244.167 101.067V101.264H244.364V101.067H244.167ZM243.969 88.4336V101.067H244.364V88.4336H243.969ZM244.167 100.87H231.533V101.264H244.167V100.87Z" fill="#D0D5DD" mask="url(#path-371-inside-185_1_15211)"/>
<mask id="path-373-inside-186_1_15211" fill="white">
<path d="M244.167 88.4336H256.8V101.067H244.167V88.4336Z"/>
</mask>
<path d="M256.8 101.067V101.264H256.997V101.067H256.8ZM256.603 88.4336V101.067H256.997V88.4336H256.603ZM256.8 100.87H244.167V101.264H256.8V100.87Z" fill="#D0D5DD" mask="url(#path-373-inside-186_1_15211)"/>
<mask id="path-375-inside-187_1_15211" fill="white">
<path d="M256.8 88.4336H269.433V101.067H256.8V88.4336Z"/>
</mask>
<path d="M269.433 101.067V101.264H269.631V101.067H269.433ZM269.236 88.4336V101.067H269.631V88.4336H269.236ZM269.433 100.87H256.8V101.264H269.433V100.87Z" fill="#D0D5DD" mask="url(#path-375-inside-187_1_15211)"/>
<mask id="path-377-inside-188_1_15211" fill="white">
<path d="M269.433 88.4336H282.067V101.067H269.433V88.4336Z"/>
</mask>
<path d="M282.067 101.067V101.264H282.264V101.067H282.067ZM281.869 88.4336V101.067H282.264V88.4336H281.869ZM282.067 100.87H269.433V101.264H282.067V100.87Z" fill="#D0D5DD" mask="url(#path-377-inside-188_1_15211)"/>
<mask id="path-379-inside-189_1_15211" fill="white">
<path d="M282.067 88.4336H294.7V101.067H282.067V88.4336Z"/>
</mask>
<path d="M294.7 101.067V101.264H294.897V101.067H294.7ZM294.503 88.4336V101.067H294.897V88.4336H294.503ZM294.7 100.87H282.067V101.264H294.7V100.87Z" fill="#D0D5DD" mask="url(#path-379-inside-189_1_15211)"/>
<mask id="path-381-inside-190_1_15211" fill="white">
<path d="M294.7 88.4336H307.333V101.067H294.7V88.4336Z"/>
</mask>
<path d="M307.333 101.067V101.264H307.531V101.067H307.333ZM307.136 88.4336V101.067H307.531V88.4336H307.136ZM307.333 100.87H294.7V101.264H307.333V100.87Z" fill="#D0D5DD" mask="url(#path-381-inside-190_1_15211)"/>
<mask id="path-383-inside-191_1_15211" fill="white">
<path d="M307.333 88.4336H319.967V101.067H307.333V88.4336Z"/>
</mask>
<path d="M319.967 101.067V101.264H320.164V101.067H319.967ZM319.769 88.4336V101.067H320.164V88.4336H319.769ZM319.967 100.87H307.333V101.264H319.967V100.87Z" fill="#D0D5DD" mask="url(#path-383-inside-191_1_15211)"/>
<mask id="path-385-inside-192_1_15211" fill="white">
<path d="M319.967 88.4336H332.6V101.067H319.967V88.4336Z"/>
</mask>
<path d="M319.967 88.4336H332.6V101.067H319.967V88.4336Z" fill="#F2F4F7"/>
<path d="M332.6 101.067V101.264H332.797V101.067H332.6ZM332.403 88.4336V101.067H332.797V88.4336H332.403ZM332.6 100.87H319.967V101.264H332.6V100.87Z" fill="#D0D5DD" mask="url(#path-385-inside-192_1_15211)"/>
</g>
<rect x="-8.4013" y="0.0986979" width="378.803" height="277.736" stroke="#D0D5DD" stroke-width="0.197396"/>
</g>
</g>
<defs>
<radialGradient id="paint0_radial_1_15211" cx="0" cy="0" r="1" gradientUnits="userSpaceOnUse" gradientTransform="translate(142.125 -3.38852e-05) rotate(90) scale(284.25 148.36)">
<stop/>
<stop offset="0.953125" stop-opacity="0"/>
</radialGradient>
<clipPath id="clip0_1_15211">
<rect width="363" height="98" fill="white"/>
</clipPath>
<clipPath id="clip1_1_15211">
<rect x="-8.5" width="379" height="277.933" fill="white"/>
</clipPath>
</defs>
</svg>
