<svg width="26" height="26" viewBox="0 0 26 26" fill="none" xmlns="http://www.w3.org/2000/svg">
<path d="M13 5.94701V22.197M8.39582 9.19701H5.95832M9.20832 12.447H5.95832M23.8333 18.1345V5.05868C23.8333 3.75868 22.7717 2.79451 21.4825 2.90285H21.4175C19.1425 3.09785 15.6867 4.25701 13.7583 5.47035L13.5742 5.58951C13.26 5.78451 12.74 5.78451 12.4258 5.58951L12.155 5.42701C10.2267 4.22451 6.78166 3.07618 4.50666 2.89201C3.21749 2.78368 2.16666 3.75868 2.16666 5.04785V18.1345C2.16666 19.1745 3.01166 20.1495 4.05166 20.2795L4.36582 20.3228C6.71666 20.637 10.3458 21.8287 12.4258 22.9662L12.4692 22.9878C12.7617 23.1503 13.2275 23.1503 13.5092 22.9878C15.5892 21.8395 19.2292 20.637 21.5908 20.3228L21.9483 20.2795C22.9883 20.1495 23.8333 19.1745 23.8333 18.1345Z" stroke="#98A2B3" stroke-width="2" stroke-linecap="round" stroke-linejoin="round"/>
</svg>
