<svg width="24" height="22" viewBox="0 0 24 22" fill="none" xmlns="http://www.w3.org/2000/svg">
<path d="M8.27333 2.33347V16.4168M16.0408 5.1718V19.6668M1.48083 6.42847V16.9693C1.48083 19.0276 2.94333 19.8726 4.72 18.8543L7.26583 17.4026C7.81833 17.0885 8.73917 17.056 9.31333 17.3485L15.0008 20.1976C15.575 20.4793 16.4958 20.4576 17.0483 20.1435L21.7392 17.4568C22.335 17.1101 22.8333 16.2651 22.8333 15.5718V5.03097C22.8333 2.97264 21.3708 2.12764 19.5942 3.14597L17.0483 4.59764C16.4958 4.9118 15.575 4.9443 15.0008 4.6518L9.31333 1.81347C8.73917 1.5318 7.81833 1.55347 7.26583 1.86764L2.575 4.5543C1.96833 4.90097 1.48083 5.74597 1.48083 6.42847Z" stroke="#98A2B3" stroke-width="2" stroke-linecap="round" stroke-linejoin="round"/>
</svg>
