<svg width="26" height="26" viewBox="0 0 26 26" fill="none" xmlns="http://www.w3.org/2000/svg">
<path d="M9.75001 23.8337H16.25C21.6667 23.8337 23.8333 21.667 23.8333 16.2503V9.75033C23.8333 4.33366 21.6667 2.16699 16.25 2.16699H9.75001C4.33334 2.16699 2.16667 4.33366 2.16667 9.75033V16.2503C2.16667 21.667 4.33334 23.8337 9.75001 23.8337Z" stroke="#98A2B3" stroke-width="2" stroke-linecap="round" stroke-linejoin="round"/>
<path d="M18.4167 2.64355V13.4552C18.4167 15.5894 16.8892 16.4236 15.015 15.2969L13.585 14.4411C13.26 14.2461 12.74 14.2461 12.415 14.4411L10.985 15.2969C9.11083 16.4127 7.58333 15.5894 7.58333 13.4552V2.64355" stroke="#98A2B3" stroke-width="2" stroke-linecap="round" stroke-linejoin="round"/>
<path d="M9.75001 23.8337H16.25C21.6667 23.8337 23.8333 21.667 23.8333 16.2503V9.75033C23.8333 4.33366 21.6667 2.16699 16.25 2.16699H9.75001C4.33334 2.16699 2.16667 4.33366 2.16667 9.75033V16.2503C2.16667 21.667 4.33334 23.8337 9.75001 23.8337Z" stroke="#98A2B3" stroke-width="2" stroke-linecap="round" stroke-linejoin="round"/>
<path d="M18.4167 2.64355V13.4552C18.4167 15.5894 16.8892 16.4236 15.015 15.2969L13.585 14.4411C13.26 14.2461 12.74 14.2461 12.415 14.4411L10.985 15.2969C9.11083 16.4127 7.58333 15.5894 7.58333 13.4552V2.64355" stroke="#98A2B3" stroke-width="2" stroke-linecap="round" stroke-linejoin="round"/>
</svg>
